<?xml version="1.0" encoding="UTF-8"?>
<svg id="Layer_1" xmlns="http://www.w3.org/2000/svg" version="1.1" viewBox="0 0 595.3 841.9">
  <!-- Generator: Adobe Illustrator 30.0.0, SVG Export Plug-In . SVG Version: 2.1.1 Build 123)  -->
  <path d="M280.2,129.4c243.8-13,393.1,259.6,253,461-107.8,154.9-332.6,163.9-454.8,21.2C-77.7,429.4,41.7,142.1,280.2,129.4ZM139,382.1h-46.5c37.5-25.7,64.9-61.7,98.8-91.3-13.5-10.6-24.4-27-26.1-44.4,22.7,8.5,46.9,12,71.2,10.7,48.3-2.4,95.9-12.2,143.5,5.8,10,3.8,28.5,13.1,23.7,26.4,32.1,3.4,56.5,30.3,44.6,63.5-1,.9-10.3-5.3-12.6-6.3-38.5-17.2-91.9,4.7-95.9,49.8-2.8,31.4,1.9,62-3.1,94.6-10.8,71.1-55.8,130.6-112.3,172,119,38.3,251.6-24.3,302.5-137.5,33.8-75.1,28.2-161.8-12.6-232.8-87.5-152.1-307-167.2-414.4-28.5-34.6,44.7-53.4,99.3-53.9,156.2,33.1-3.8,67.5-16.2,93-38.1ZM340.5,286.4h-18.4l14.3,11.2-5.6,16.1,15-9.5,14.5,9.5-4.2-15.9,13.4-11.4h-17.4l-5.3-16.6-6.3,16.6ZM140.9,621.3l22.8,14.4c65.3-31.5,137.5-111.6,92.1-187.2l3.4,21c3.4,76.5-53.4,121.5-115.9,149.9-1,.4-2.3.7-2.4,2Z"/>
</svg>